<?xml version="1.0" standalone="no"?>
<!DOCTYPE svg PUBLIC "-//W3C//DTD SVG 1.1//EN" "http://www.w3.org/Graphics/SVG/1.1/DTD/svg11.dtd">
<svg t="1743893400000" class="icon" viewBox="0 0 1024 1024" version="1.1" xmlns="http://www.w3.org/2000/svg" p-id="4300" xmlns:xlink="http://www.w3.org/1999/xlink" width="200" height="200">
  <path d="M967.111111 281.6V910.222222c0 62.862222-50.915556 113.777778-113.777778 113.777778H170.666667c-62.862222 0-113.777778-50.915556-113.777778-113.777778V113.777778c0-62.862222 50.915556-113.777778 113.777778-113.777778h514.844444L967.111111 281.6z" fill="#8B5CF6" p-id="4301"></path>
  <path d="M685.511111 167.822222V0L967.111111 281.6H799.288889c-62.862222 0-113.777778-50.915556-113.777778-113.777778" fill="#6D28D9" p-id="4302"></path>
  <g transform="translate(63.85 -29.525) scale(1.05)">
    <path d="M256 742V439h67l96 128 96-128h67v303h-61V532l-82 109h-41L317 532v210z" fill="#FFFFFF"/>
  </g>
</svg>
