<?xml version="1.0" standalone="no"?><!DOCTYPE svg PUBLIC "-//W3C//DTD SVG 1.1//EN" "http://www.w3.org/Graphics/SVG/1.1/DTD/svg11.dtd"><svg t="1718623309459" class="icon" viewBox="0 0 1024 1024" version="1.1" xmlns="http://www.w3.org/2000/svg" p-id="1203" xmlns:xlink="http://www.w3.org/1999/xlink" width="200" height="200"><path d="M967.111111 281.6V910.222222c0 62.862222-50.915556 113.777778-113.777778 113.777778H170.666667c-62.862222 0-113.777778-50.915556-113.777778-113.777778V113.777778c0-62.862222 50.915556-113.777778 113.777778-113.777778h514.844444L967.111111 281.6z" fill="#FFC63A" p-id="1204"></path><path d="M685.511111 167.822222V0L967.111111 281.6H799.288889c-62.862222 0-113.777778-50.915556-113.777778-113.777778" fill="#DD9F08" p-id="1205"></path><path fill-rule="evenodd" d="M278 354H443c22 0 55 60 78 60H700c28 0 50 22 50 50V689c0 28-22 50-50 50H300c-28 0-50-22-50-50V382c0-15 12-28 28-28zM323 462H677c14 0 25 11 25 25V666c0 14-11 25-25 25H323c-14 0-25-11-25-25V487c0-14 11-25 25-25z" fill="#FFFFFF" p-id="1206"></path></svg>