<?xml version="1.0" standalone="no"?><!DOCTYPE svg PUBLIC "-//W3C//DTD SVG 1.1//EN" "http://www.w3.org/Graphics/SVG/1.1/DTD/svg11.dtd"><svg t="1718623309459" class="icon" viewBox="0 0 1024 1024" version="1.1" xmlns="http://www.w3.org/2000/svg" p-id="1203" xmlns:xlink="http://www.w3.org/1999/xlink" width="200" height="200"><path d="M967.111111 281.6V910.222222c0 62.862222-50.915556 113.777778-113.777778 113.777778H170.666667c-62.862222 0-113.777778-50.915556-113.777778-113.777778V113.777778c0-62.862222 50.915556-113.777778 113.777778-113.777778h514.844444L967.111111 281.6z" fill="#8B8CA2" p-id="1204"></path><path d="M685.511111 167.822222V0L967.111111 281.6H799.288889c-62.862222 0-113.777778-50.915556-113.777778-113.777778" fill="#6B6C82" p-id="1205"></path><path fill-rule="evenodd" d="M455.0 360.1A200 200 0 0 1 545.0 360.1Q553.8 379.0 554.5 413.1A152 152 0 0 1 595.7 436.9Q625.5 420.4 646.3 418.6A200 200 0 0 1 691.3 496.5Q679.3 513.6 650.1 531.2A152 152 0 0 1 650.1 578.8Q679.3 596.4 691.3 613.5A200 200 0 0 1 646.3 691.4Q625.5 689.6 595.7 673.1A152 152 0 0 1 554.5 696.9Q553.8 731.0 545.0 749.9A200 200 0 0 1 455.0 749.9Q446.2 731.0 445.5 696.9A152 152 0 0 1 404.3 673.1Q374.5 689.6 353.7 691.4A200 200 0 0 1 308.7 613.5Q320.7 596.4 349.9 578.8A152 152 0 0 1 349.9 531.2Q320.7 513.6 308.7 496.5A200 200 0 0 1 353.7 418.6Q374.5 420.4 404.3 436.9A152 152 0 0 1 445.5 413.1Q446.2 379.0 455.0 360.1Z M500 490A65 65 0 1 1 500 620A65 65 0 1 1 500 490Z" fill="#FFFFFF" p-id="1206"></path></svg>